 http://img683.imageshack.us/img683/7199/losojosdejuliaoriginal.jpg

Country.......: Spain
Genre.........: Horror, Thriller
Date release..: 11.09.2010 [World]
Director......: Guillem Morales
Writers.......: Guillem Morales, Oriol Paulo
Duration......: 117 min.
More..........: http://www.imdb.com/title/tt1512685
Trailer.......: http://www.imdb.com/video/screenplay/vi1026399513
Trailer.......:

Pilot :
The story of a woman who is slowly losing her sight whilst trying to investigate the mysterious death of her twin sister. 

Cats :
Belen Rueda   	 ...  	Julia | Sara
Lluis Homar 	... 	Isaac
Pablo Derqui 	... 	Ivan
Francesc Orella 	... 	Inspector Dimas
Joan Dalmau 	... 	Crespulo
Boris Ruiz 	... 	Blasco
Daniel Grao 	... 	Dr. Roman
Clara Segura 	... 	Mina
Andrea Hermosa 	... 	Lia
Julia Gutierrez Caba 	... 	Sra. Soledad
Mia Esteve 		
Jordi Llordella 		
Pere Ventura

Data Technical :
!!! SAMPLE !!!
Audio.....: Spanish
Subtitles.: English .srt
Format                           : AVI
Format/Info                      : Audio Video Interleave
File size                        : 1.74 GiB
Duration                         : 1h 57mn
Overall bit rate                 : 2 126 Kbps
Writing application              : VirtualDubMod 1.5.10.3
Writing library                  : VirtualDubMod build 2550/release
Video
ID                               : 0
Format                           : MPEG-4 Visual
Format profile                   : Advanced Simple@L5
Format settings, BVOP            : Yes
Format settings, QPel            : No
Format settings, GMC             : No warppoints
Format settings, Matrix          : Default (MPEG)
Codec ID                         : XVID
Codec ID/Hint                    : XviD
Duration                         : 1h 57mn
Bit rate                         : 1 669 Kbps
Width                            : 720 pixels
Height                           : 304 pixels
Display aspect ratio             : 2.35:1
Frame rate                       : 23.976 fps
Color space                      : YUV
Chroma subsampling               : 4:2:0
Bit depth                        : 8 bits
Scan type                        : Progressive
Bits/(Pixel*Frame)               : 0.318
Stream size                      : 1.37 GiB (78%)
Writing library                  : XviD 62
Audio
ID                               : 1
Format                           : AC-3
Format/Info                      : Audio Coding 3
Mode extension                   : CM (complete main)
Codec ID                         : 2000
Duration                         : 1h 57mn
Bit rate mode                    : Constant
Bit rate                         : 448 Kbps
Channel(s)                       : 6 channels
Channel positions                : Front: L C R, Side: L R, LFE
Sampling rate                    : 48.0 KHz
Bit depth                        : 16 bits
Stream size                      : 376 MiB (21%)
Alignment                        : Split accross interleaves
Interleave, duration             : 42 ms (1.00 video frame)
Interleave, preload duration     : 500 ms

Screen : 
http://img705.imageshack.us/img705/9202/juliaseyes2010s1.jpg 
http://img40.imageshack.us/img40/7844/juliaseyes2010s2.jpg 
http://img402.imageshack.us/img402/141/juliaseyes2010s3.jpg 
http://img171.imageshack.us/img171/7806/juliaseyes2010s4.jpg 
http://img810.imageshack.us/img810/7794/juliaseyes2010s5.jpg